<svg width="24" height="24" viewBox="0 0 24 24" fill="none" xmlns="http://www.w3.org/2000/svg">
<path d="M17.3402 8.85295C17.3402 9.61686 16.7213 10.2361 15.9574 10.2361C15.1939 10.2361 14.5747 9.61686 14.5747 8.85295C14.5747 8.08905 15.1939 7.47021 15.9574 7.47021C16.7213 7.47021 17.3402 8.08905 17.3402 8.85295Z" fill="#6E718A"/>
<path d="M9.3895 8.85295C9.3895 9.61686 8.77028 10.2361 8.00676 10.2361C7.24324 10.2361 6.62402 9.61686 6.62402 8.85295C6.62402 8.08905 7.24324 7.47021 8.00676 7.47021C8.77028 7.47021 9.3895 8.08905 9.3895 8.85295Z" fill="#6E718A"/>
<path d="M13.0575 19.0955H11.1372C8.70529 19.0955 6.72656 17.1412 6.72656 14.7384C6.72656 14.4235 6.98185 14.1687 7.29636 14.1687C7.61087 14.1687 7.86616 14.4235 7.86616 14.7384C7.86616 16.5427 9.30284 17.9562 11.1372 17.9562H13.0575C14.8919 17.9562 16.3286 16.5662 16.3286 14.7915C16.3286 14.4767 16.5839 14.2219 16.8984 14.2219C17.2133 14.2219 17.4682 14.4767 17.4682 14.7915C17.4682 17.205 15.5308 19.0955 13.0575 19.0955Z" fill="#6E718A"/>
<path d="M12.0002 24C5.38317 24 0 18.6167 0 11.9998C0 5.38332 5.38317 0 12.0002 0C18.6168 0 24 5.38332 24 11.9998C24 18.6166 18.6168 24 12.0002 24ZM12.0002 1.13973C6.01148 1.13973 1.13964 6.01151 1.13964 11.9998C1.13964 17.9885 6.01152 22.8603 12.0002 22.8603C17.9885 22.8603 22.8604 17.9885 22.8604 11.9998C22.8604 6.01147 17.9885 1.13973 12.0002 1.13973Z" fill="#6E718A"/>
</svg>
